<svg xmlns="http://www.w3.org/2000/svg" viewBox="0 0 200 200">
  <!-- Sun rays -->
  <g fill="#f28d25">
    <!-- Top rays -->
    <polygon points="100,10 95,40 105,40"/>
    <polygon points="100,10 90,35 110,35" transform="rotate(22.5, 100, 100)"/>
    <polygon points="100,10 90,35 110,35" transform="rotate(45, 100, 100)"/>
    <polygon points="100,10 90,35 110,35" transform="rotate(67.5, 100, 100)"/>
    <polygon points="100,10 95,40 105,40" transform="rotate(90, 100, 100)"/>
    <polygon points="100,10 90,35 110,35" transform="rotate(112.5, 100, 100)"/>
    <polygon points="100,10 90,35 110,35" transform="rotate(135, 100, 100)"/>
    <polygon points="100,10 90,35 110,35" transform="rotate(157.5, 100, 100)"/>
    <polygon points="100,10 95,40 105,40" transform="rotate(180, 100, 100)"/>
    <polygon points="100,10 90,35 110,35" transform="rotate(202.5, 100, 100)"/>
    <polygon points="100,10 90,35 110,35" transform="rotate(225, 100, 100)"/>
    <polygon points="100,10 90,35 110,35" transform="rotate(247.5, 100, 100)"/>
    <polygon points="100,10 95,40 105,40" transform="rotate(270, 100, 100)"/>
    <polygon points="100,10 90,35 110,35" transform="rotate(292.5, 100, 100)"/>
    <polygon points="100,10 90,35 110,35" transform="rotate(315, 100, 100)"/>
    <polygon points="100,10 90,35 110,35" transform="rotate(337.5, 100, 100)"/>
  </g>
  
  <!-- White circle background -->
  <circle cx="100" cy="100" r="50" fill="white"/>
  
  <!-- Running athlete figure -->
  <g fill="#322259">
    <!-- Head -->
    <circle cx="115" cy="70" r="8"/>
    <!-- Body/torso curve -->
    <path d="M 105 75 Q 95 85 85 95 Q 80 100 75 110 L 70 125 Q 68 130 72 132 Q 76 134 80 130 L 90 115 Q 95 108 105 100 Q 115 92 120 82 Q 122 78 118 76 Q 114 74 105 75 Z"/>
    <!-- Arm -->
    <path d="M 100 85 Q 85 75 75 70 Q 70 68 72 72 Q 74 78 85 88 Q 90 92 95 90 Z"/>
  </g>
</svg>

